<?xml version="1.0" standalone="no"?>
<!DOCTYPE svg PUBLIC "-//W3C//DTD SVG 20010904//EN"
 "http://www.w3.org/TR/2001/REC-SVG-20010904/DTD/svg10.dtd">
<svg version="1.0" xmlns="http://www.w3.org/2000/svg"
 width="234.000000pt" height="70.000000pt" viewBox="0 0 234.000000 70.000000"
 preserveAspectRatio="xMidYMid meet">
<metadata>
Created by potrace 1.15, written by Peter Selinger 2001-2017
</metadata>
<g transform="translate(0.000000,70.000000) scale(0.100000,-0.100000)"
fill="#000000" stroke="none">
<path d="M185 622 c-85 -40 -125 -125 -125 -267 0 -205 85 -294 272 -283 40 2
90 12 111 21 l38 16 -3 143 -3 143 -95 0 -95 0 0 -50 0 -50 38 -3 37 -3 0 -55
0 -54 -53 0 c-93 0 -128 48 -128 176 0 139 39 178 175 172 l81 -3 9 43 c6 30
6 46 -3 55 -7 7 -53 13 -114 15 -84 2 -109 -1 -142 -16z"/>
<path d="M1000 350 l0 -270 55 0 55 0 0 115 0 115 80 0 80 0 0 -115 0 -115 60
0 60 0 0 270 0 270 -60 0 -60 0 0 -100 0 -100 -80 0 -80 0 0 100 0 100 -55 0
-55 0 0 -270z"/>
<path d="M1840 350 l0 -270 39 0 c22 0 41 5 43 10 2 7 16 5 40 -5 47 -19 121
-19 158 0 45 23 63 68 68 166 8 150 -42 217 -152 206 -28 -2 -59 -8 -68 -12
-16 -6 -18 1 -18 84 l0 91 -55 0 -55 0 0 -270z m207 5 c28 -20 40 -92 24 -146
-13 -44 -41 -57 -88 -42 -27 9 -28 11 -31 95 l-3 86 28 10 c39 14 46 14 70 -3z"/>
<path d="M748 503 c-3 -52 -5 -58 -28 -63 -21 -5 -25 -12 -28 -48 -3 -41 -2
-42 27 -42 l31 0 0 -106 0 -106 34 -34 c33 -33 38 -35 98 -32 l63 3 3 42 c3
42 2 43 -27 43 -49 0 -61 21 -61 110 l0 79 43 3 42 3 3 48 3 47 -45 0 -46 0 0
55 0 55 -55 0 -54 0 -3 -57z"/>
<path d="M530 265 l0 -185 60 0 60 0 0 185 0 185 -60 0 -60 0 0 -185z"/>
<path d="M1442 291 c3 -159 3 -161 30 -187 34 -35 115 -44 182 -21 25 9 46 12
46 6 0 -5 18 -9 40 -9 l40 0 0 185 0 185 -55 0 -54 0 -3 -137 -3 -138 -37 -9
c-62 -15 -67 -4 -70 147 l-3 132 -58 3 -58 3 3 -160z"/>
</g>
</svg>
